<?xml version="1.0" ?><svg data-name="Layer 45" height="24" id="Layer_45" viewBox="0 0 24 24" width="24" xmlns="http://www.w3.org/2000/svg"><title/><rect height="3.95" rx="0.75" ry="0.75" style="fill:#ffab66" width="1.5" x="1.5" y="12.15"/><rect height="6.5" rx="0.75" ry="0.75" style="fill:#ffab66" width="1.5" x="4.5" y="10.5"/><rect height="9" rx="0.75" ry="0.75" style="fill:#ffab66" width="1.5" x="7.5" y="8"/><rect height="11" rx="0.75" ry="0.75" style="fill:#ffab66" width="1.5" x="10.5" y="6"/><path d="M19.60529,11.21051a2.86507,2.86507,0,0,0-.78.11987,4.58148,4.58148,0,0,0,.201-1.27777A4.6316,4.6316,0,0,0,14.39471,5.421,4.12318,4.12318,0,0,0,13.5,5.53229V17h6.10529a2.89474,2.89474,0,0,0,0-5.78949Z" style="fill:#ffab66"/></svg>