<svg xmlns="http://www.w3.org/2000/svg" xmlns:xlink="http://www.w3.org/1999/xlink" width="48" height="48" viewBox="0 0 48 48"><defs><linearGradient id="b" x1="1056.035" x2="1031.176" y1="544.13" y2="517.701" gradientTransform="matrix(2.06248 0 0 2.0462 -1902.792 302.93)" gradientUnits="userSpaceOnUse" xlink:href="#a"/><linearGradient id="a"><stop offset="0" stop-color="#5a5a5a"/><stop offset="1" stop-color="#656e85"/></linearGradient></defs><g transform="matrix(.74563 0 0 .75157 -162.952 -1020.692)"><rect width="64.375" height="63.866" x="218.542" y="1358.082" fill="url(#b)" rx="13.605" ry="13.497"/><path fill="#fff" style="line-height:normal;-inkscape-font-specification:Sans;text-indent:0;text-align:start;text-decoration-line:none;text-transform:none;block-progression:tb;marker:none" d="m 250.05858,1373.0088 0,2.9938 1.34114,0 0,-2.9938 z m -5.90941,1.289 -1.1735,0.5821 1.25732,2.7027 1.21541,-0.5405 z m 20.70388,1.6216 c 2.06608,-0.056 4.12421,0.98 5.23884,2.9106 1.62128,2.8081 0.67069,6.3621 -2.13744,7.9833 l -7.8373,4.4906 c -1.70592,0.985 -3.58735,0.7933 -5.23884,0.042 l 1.80216,-1.0395 c 0.90313,0.1218 1.86469,0.039 2.72419,-0.4574 l 7.58584,-4.449 c 0.0131,-0.01 0.0288,-0.035 0.0419,-0.042 1.99391,-1.1791 2.7383,-3.712 1.59261,-5.6964 -1.15328,-1.9976 -3.75967,-2.6238 -5.78368,-1.4553 l -7.62775,4.4075 c -0.867,0.5005 -1.45755,1.2684 -1.80216,2.1205 l -1.13159,0.6653 -0.62866,0.3742 c 0.16341,-1.8206 0.9644,-3.582 2.68229,-4.5738 l 7.75348,-4.4906 c 0.87795,-0.5069 1.82753,-0.7649 2.7661,-0.79 z m -26.02654,1.9543 -0.92204,0.9563 2.17936,2.079 0.92204,-0.9979 z m 26.36183,1.081 c 0.93234,0.045 1.81408,0.5217 2.30509,1.3722 0.78577,1.361 0.28698,3.0894 -1.13159,3.9085 l -7.4601,4.3658 c 0.69777,-1.0052 0.84712,-2.3051 0.20955,-3.4095 -0.60405,-1.0463 -1.73809,-1.6452 -2.89184,-1.6216 l 7.29246,-4.1996 c 0.53195,-0.3071 1.11703,-0.4426 1.67643,-0.4158 z m -30.72054,5.9875 -0.33529,1.289 2.89184,0.79 0.3772,-1.289 z m 21.5421,0 c 0.25214,-0.033 0.51193,-0.016 0.75439,0.042 0.48492,0.1157 0.91332,0.3809 1.1735,0.8316 0.52045,0.9015 0.19965,2.086 -0.7963,2.6611 l -0.88013,0.5405 c 0,0 -4.14702,2.3765 -5.90941,3.368 l -3.1433,1.8295 c -0.26153,0.2258 -0.61119,0.3709 -0.92204,0.5405 -0.99588,0.575 -2.16186,0.2776 -2.68228,-0.6237 -0.52037,-0.9014 -0.19958,-2.0862 0.7963,-2.6611 0.26391,-0.2402 0.63284,-0.3443 0.92204,-0.4989 l 2.05362,-1.2058 1.08968,-0.6653 c 0.0449,-0.023 0.0871,-0.051 0.12573,-0.083 l 2.347,-1.3305 0.16765,-0.083 3.1433,-1.7879 c 0.0449,-0.023 0.0871,-0.051 0.12573,-0.083 0.0146,-0.013 0.0286,-0.027 0.0419,-0.042 l 0.83821,-0.499 c 0.24898,-0.1438 0.50226,-0.2163 0.7544,-0.2495 z m -11.94455,2.9938 c 0.92809,-0.025 1.84967,0.2649 2.68228,0.6652 l -0.25146,0.1248 -1.67643,0.9979 c -0.91128,-0.1284 -1.89817,0 -2.76611,0.4989 l -7.58583,4.4075 c -2.024,1.1685 -2.78772,3.699 -1.63452,5.6964 1.15322,1.9974 3.75936,2.6656 5.78368,1.4969 l 7.62774,-4.4075 c 0.85504,-0.4935 1.455,-1.2814 1.80216,-2.1205 0.005,-0.012 -0.005,-0.03 0,-0.042 l 0.83822,-0.4574 0.96394,-0.5405 c -0.16191,1.8225 -1.00462,3.5394 -2.72419,4.5322 l -7.75348,4.5321 c -2.80816,1.6213 -6.38367,0.646 -8.00494,-2.1621 -1.62129,-2.8081 -0.6707,-6.3204 2.13744,-7.9417 l 7.8373,-4.4906 c 0.8776,-0.5067 1.78561,-0.7649 2.7242,-0.79 z m -1.46688,3.4926 c -0.66745,1.0009 -0.79779,2.2766 -0.16764,3.368 0.61673,1.0682 1.7955,1.6383 2.97566,1.58 l -7.4601,4.2827 c -1.41822,0.8188 -3.19574,0.3631 -3.98152,-0.9979 -0.7857,-1.3608 -0.28695,-3.0895 1.13159,-3.9085 z m 21.83548,1.5801 -0.3772,1.2474 2.93375,0.79 0.33529,-1.289 z m -3.05948,6.1122 -0.92204,0.9979 2.17936,2.0374 0.92203,-0.9979 z m -4.14916,3.3264 -1.21541,0.5405 1.29923,2.7027 1.1735,-0.5406 z m -7.16673,1.58 0,2.9937 1.34114,0 0,-2.9937 z" color="#000" font-family="Sans" font-weight="400" overflow="visible"/></g></svg>