<svg xmlns="http://www.w3.org/2000/svg" xmlns:xlink="http://www.w3.org/1999/xlink" width="25" height="25" viewBox="0 0 25 25"><defs><linearGradient id="a"><stop offset="0" stop-color="#24f3d2"/><stop offset=".394" stop-color="#0674f0"/><stop offset=".507" stop-color="#6961b5"/><stop offset=".813" stop-color="#f34660"/><stop offset="1" stop-color="#ee078d"/></linearGradient><linearGradient id="b" x1="868.253" x2="937.656" y1="521.354" y2="588.736" gradientTransform="translate(-696.119 618.831) scale(.80097)" gradientUnits="userSpaceOnUse" xlink:href="#a"/></defs><g fill="#fff" transform="translate(4.99 -1031.862)"><rect width="25" height="25" x="-4.989" y="1031.862" fill="url(#b)" rx="5.283" ry="5.283"/><path d="m 0,0 0,1 c 2.99349,0 5.7648456,0.8947969 8.1035156,2.4042969 -0.0587,0.1874 -0.099609,0.3838437 -0.099609,0.5898437 10e-6,1.0987 0.90135,2 1.9999994,2 0.33697,0 0.650148,-0.092987 0.929688,-0.2421875 C 13.448424,8.4337531 15,12.0294 15,16 l 1,0 c 0,-4.2214 -1.652925,-8.0518094 -4.328125,-10.9121094 0.2081,-0.3154 0.332031,-0.69045 0.332031,-1.09375 6e-5,-1.0987 -0.9013,-2 -2,-2 -0.5330498,0 -1.0172129,0.2146938 -1.3769529,0.5585938 C 6.1347331,0.94763438 3.18225,0 0,0 Z m 10.003906,2.9941406 c 0.55824,0 1.00003,0.4418 1,1 -1e-5,0.5582 -0.44179,1 -1,1 -0.5582098,0 -0.9999898,-0.4418 -0.9999998,-1 -3e-5,-0.5582 0.4417601,-1 0.9999998,-1 z m -9.98632787,2.9882813 0,1 c 4.97647997,-1e-4 9.00002997,4.0235001 8.99999997,9.0000001 l 0.9999999,0 c 3e-5,-5.517 -4.4830699,-10.0001001 -9.99999987,-10.0000001 z" color="#000" font-family="sans-serif" font-weight="400" overflow="visible" transform="translate(.01 1036.862)" style="line-height:normal;text-indent:0;text-align:start;text-decoration-line:none;text-decoration-style:solid;text-decoration-color:#000;text-transform:none;block-progression:tb;isolation:auto;mix-blend-mode:normal"/></g></svg>