<svg xmlns="http://www.w3.org/2000/svg" xmlns:xlink="http://www.w3.org/1999/xlink" width="48" height="48" viewBox="0 0 48 48"><defs><linearGradient id="b" x1="949.87" x2="974.39" y1="518.014" y2="544.657" gradientTransform="translate(-1233.353 760.343) scale(1.53785)" gradientUnits="userSpaceOnUse" xlink:href="#a"/><linearGradient id="a"><stop offset="0" stop-color="#24f7bc"/><stop offset="1" stop-color="#24c4fc"/></linearGradient></defs><g transform="translate(-221 -1553.362)"><rect width="48" height="48" x="221" y="1553.362" fill="url(#b)" rx="10.144" ry="10.144"/><path fill="#fff" style="line-height:normal;-inkscape-font-specification:Sans;text-indent:0;text-align:start;text-decoration-line:none;text-transform:none;block-progression:tb;marker:none" d="m 231.99999,1564.3622 26,0 0,3 -26,0 z m 1.5,1 c -0.27614,0 -0.5,0.2239 -0.5,0.5 0,0.2761 0.22386,0.5 0.5,0.5 0.27614,0 0.5,-0.2239 0.5,-0.5 0,-0.2761 -0.22386,-0.5 -0.5,-0.5 z m 2,0 c -0.27614,0 -0.5,0.2238 -0.5,0.5 0,0.2761 0.22386,0.5 0.5,0.5 0.27614,0 0.5,-0.2239 0.5,-0.5 0,-0.2762 -0.22386,-0.5 -0.5,-0.5 z m 2,0 c -0.27616,0 -0.5,0.2238 -0.5,0.5 0,0.2761 0.22384,0.5 0.5,0.5 0.27616,0 0.5,-0.2239 0.5,-0.5 0,-0.2762 -0.22384,-0.5 -0.5,-0.5 z m -5.5,3 26,0 0,1.9688 0,20.0312 -26,0 z m 13,4 c -3.86016,0 -7,3.1396 -7,7 0,3.8604 3.13986,7 7,7 3.86007,0 7,-3.1396 7,-7 0,-3.8604 -3.13991,-7 -7,-7 z m -0.5,1.0938 0,2.1562 -2,0 c 0.17272,-0.6052 0.38226,-1.224 0.625,-1.8437 0.44103,-0.1468 0.88949,-0.2708 1.375,-0.3125 z m 1,0 c 0.46122,0.04 0.89117,0.1466 1.3125,0.2812 0.24735,0.6292 0.44972,1.2608 0.625,1.875 l -1.9375,0 z m -3.625,0.875 c -0.14647,0.4299 -0.29271,0.8533 -0.40625,1.2812 l -1.0625,0 c 0.42102,-0.5161 0.90697,-0.935 1.46875,-1.2812 z m 6.21875,0 c 0.57094,0.3483 1.07339,0.7582 1.5,1.2812 l -1.09375,0 c -0.11354,-0.4279 -0.25978,-0.8513 -0.40625,-1.2812 z m -8.34375,2.2812 1.5,0 c -0.15277,0.752 -0.2414,1.4968 -0.28125,2.25 l -1.875,0 c 0.07,-0.8134 0.2954,-1.5626 0.65625,-2.25 z m 2.5,0 2.25,0 0,2.25 -2.5625,0 c 0.043,-0.7459 0.14735,-1.4987 0.3125,-2.25 z m 3.25,0 2.1875,0 c 0.16515,0.7513 0.2695,1.5041 0.3125,2.25 l -2.5,0 z m 3.21875,0 1.53125,0 c 0.36085,0.6874 0.58623,1.4366 0.65625,2.25 l -1.90625,0 c -0.0399,-0.7532 -0.12848,-1.498 -0.28125,-2.25 z m -9.625,3.25 1.84375,0 c 0.0122,0.7408 0.0859,1.4995 0.21875,2.25 l -1.40625,0 c -0.36686,-0.6914 -0.58474,-1.4299 -0.65625,-2.25 z m 2.8125,0 2.59375,0 0,2.25 -2.34375,0 c -0.14979,-0.7613 -0.23578,-1.502 -0.25,-2.25 z m 3.59375,0 2.53125,0 c -0.0142,0.748 -0.10021,1.4887 -0.25,2.25 l -2.28125,0 z m 3.53125,0 1.875,0 c -0.0715,0.8201 -0.28939,1.5586 -0.65625,2.25 l -1.4375,0 c 0.13285,-0.7505 0.20651,-1.5092 0.21875,-2.25 z m -8.59375,3.25 0.9375,0 c 0.099,0.3965 0.20885,0.7865 0.34375,1.1875 -0.48201,-0.3263 -0.908,-0.7366 -1.28125,-1.1875 z m 1.96875,0 2.09375,0 0,2.1563 c -0.5154,-0.044 -1.00438,-0.1459 -1.46875,-0.3125 -0.25933,-0.6279 -0.45783,-1.235 -0.625,-1.8438 z m 3.09375,0 2.03125,0 c -0.16964,0.6178 -0.36043,1.2375 -0.625,1.875 -0.44522,0.1538 -0.91491,0.239 -1.40625,0.2813 z m 3.09375,0 0.96875,0 c -0.37325,0.4509 -0.79923,0.8612 -1.28125,1.1875 0.13354,-0.3978 0.21424,-0.7942 0.3125,-1.1875 z" color="#000" font-family="Sans" font-weight="400" overflow="visible"/></g></svg>